<svg height="512" viewBox="0 0 512 512" width="512" xmlns="http://www.w3.org/2000/svg"><path d="m40 424h56v64h-56z" fill="#fdb62f"/><path d="m88 392h48v96h-48z" fill="#fdb62f"/><g fill="#ec9e15"><path d="m88 424h48v32h-48z"/><path d="m40 456h48v32h-48z"/><circle cx="112" cy="368" r="24"/><circle cx="64" cy="400" r="24"/></g><path d="m248 56c-92.205 0-169.789 62.415-192.928 147.285a71.8 71.8 0 0 1 110.055 14.8 12.756 12.756 0 0 0 10.873 5.915 12.756 12.756 0 0 0 10.873-5.917 71.856 71.856 0 0 1 122.254 0 12.756 12.756 0 0 0 10.873 5.917 12.756 12.756 0 0 0 10.873-5.917 71.8 71.8 0 0 1 110.055-14.8c-23.139-84.868-100.723-147.283-192.928-147.283z" fill="#de4c3b"/><path d="m240 184h16v136h-16z" fill="#ec9e15"/><path d="m304 360h168v128h-168z" fill="#83bd93"/><path d="m312 424h160v32h-160z" fill="#97d9a9"/><path d="m376 392h32v96h-32z" fill="#bef5fa"/><path d="m456 384v-24h-144v40h128a16 16 0 0 0 16-16z" fill="#78ac86"/><path d="m440 392h-128v-96h144v80a16 16 0 0 1 -16 16z" fill="#97d9a9"/><path d="m440 272h-16v88h16a16 16 0 0 1 16 16v-88a16 16 0 0 0 -16-16z" fill="#a8e6c7"/><circle cx="376" cy="344" fill="#83bd93" r="16"/><path d="m328 448v-80a55.866 55.866 0 0 0 -.635-7.984v-.016a55.834 55.834 0 0 0 -15.365-31.156v159.156h16l16-24z" fill="#91d1a3"/><path d="m264 64h-32v-24a16 16 0 0 1 16-16 16 16 0 0 1 16 16z" fill="#de4c3b"/><path d="m148.953 130.332-9.906-12.555a175.057 175.057 0 0 1 92.2-36.988l1.5 15.93a159.1 159.1 0 0 0 -83.794 33.613z" fill="#c94536"/><path d="m347.047 130.336a160.083 160.083 0 0 0 -67.969-31.324l3.094-15.7a176.126 176.126 0 0 1 74.781 34.457z" fill="#c94536"/><path d="m115.969 165.59-13.188-9.063a178 178 0 0 1 22.047-26.246l11.2 11.43a161.491 161.491 0 0 0 -20.059 23.879z" fill="#c94536"/><path d="m380.023 165.586a161.165 161.165 0 0 0 -20.054-23.875l11.2-11.43a177.377 177.377 0 0 1 22.039 26.25z" fill="#c94536"/><path d="m336 456h-24v32h16l16-24z" fill="#78ac86"/><path d="m312 392h16v32.291h-16z" fill="#78ac86"/><path d="m376 392h32v8h-32z" fill="#b1e4e9"/><path d="m312 392h22.062v8h-22.062z" fill="#78ac86"/><path d="m312 448v-80a56 56 0 0 0 -56-56h-8l8-48h-64l8 48h-8a56 56 0 0 0 -56 56v80l-16 16 16 24h176l16-24z" fill="#69b9e7"/><path d="m256 376v-5.4a26.541 26.541 0 0 0 -24-26.336v-8.264h-16v8.262a26.513 26.513 0 0 0 -5.812 51.566l22.562 7.524a10.595 10.595 0 0 1 -3.344 20.648h-10.812a10.606 10.606 0 0 1 -10.594-10.6v-5.4h-16v5.4a26.541 26.541 0 0 0 24 26.336v8.264h16v-8.262a26.513 26.513 0 0 0 5.812-51.566l-22.562-7.524a10.595 10.595 0 0 1 3.344-20.648h10.812a10.606 10.606 0 0 1 10.594 10.6v5.4z" fill="#4298d1"/><path d="m224 496a59.466 59.466 0 0 1 -53.469-33.043l-1.687-3.383 14.312-7.148 1.688 3.379a43.78 43.78 0 0 0 78.312 0l1.688-3.375 14.312 7.148-1.687 3.379a59.463 59.463 0 0 1 -53.469 33.043z" fill="#4298d1"/></svg>