<svg height="480pt" viewBox="0 0 480 480" width="480pt" xmlns="http://www.w3.org/2000/svg"><path d="m448 160v288h-416v-288c0-22.089844 17.910156-40 40-40h336c22.089844 0 40 17.910156 40 40zm0 0" fill="#ccdce5"/><path d="m352 472h-320c-13.253906 0-24-10.746094-24-24v-24h160l16 16h112l16-16h160v24c0 13.253906-10.746094 24-24 24zm0 0" fill="#abbac2"/><path d="m64 152h352v240h-352zm0 0" fill="#0093ba"/><path d="m416 152h-64l-240 240h304zm0 0" fill="#047fa7"/><path d="m152 288h176c17.671875 0 32 14.328125 32 32s-14.328125 32-32 32h-176c-17.671875 0-32-14.328125-32-32s14.328125-32 32-32zm0 0" fill="#ffc119"/><path d="m328 288h-112l-64 64h176c17.671875 0 32-14.328125 32-32s-14.328125-32-32-32zm0 0" fill="#faac2b"/><path d="m208 120v-48c0-17.671875 14.328125-32 32-32s32 14.328125 32 32h32c0-35.347656-28.652344-64-64-64s-64 28.652344-64 64v48zm0 0" fill="#ccdce5"/><path d="m336 120c0-8.835938-7.164062-16-16-16h-160c-8.835938 0-16 7.164062-16 16v112c0 8.835938 7.164062 16 16 16h96l80-80zm0 0" fill="#ffc119"/><path d="m256 248h64c8.835938 0 16-7.164062 16-16v-64zm0 0" fill="#faac2b"/><path d="m264 168c0 13.253906-10.746094 24-24 24s-24-10.746094-24-24 10.746094-24 24-24 24 10.746094 24 24zm0 0" fill="#ea732d"/><path d="m232 184h16v32h-16zm0 0" fill="#ea732d"/><path d="m376 256c0 30.929688-25.070312 56-56 56s-56-25.070312-56-56 25.070312-56 56-56 56 25.070312 56 56zm0 0" fill="#eb4042"/><path d="m472 416h-16v-256c-.027344-26.5-21.5-47.972656-48-48h-48v16h48c17.671875 0 32 14.328125 32 32v256h-128c-2.121094 0-4.15625.84375-5.65625 2.34375l-13.65625 13.65625h-105.375l-13.65625-13.65625c-1.5-1.5-3.535156-2.34375-5.65625-2.34375h-128v-256c0-17.671875 14.328125-32 32-32h48v-16h-48c-26.5.027344-47.972656 21.5-48 48v256h-16c-4.417969 0-8 3.582031-8 8v24c0 17.671875 14.328125 32 32 32h416c17.671875 0 32-14.328125 32-32v-24c0-4.417969-3.582031-8-8-8zm-8 32c0 8.835938-7.164062 16-16 16h-416c-8.835938 0-16-7.164062-16-16v-16h148.6875l13.65625 13.65625c1.5 1.5 3.535156 2.34375 5.65625 2.34375h112c2.121094 0 4.15625-.84375 5.65625-2.34375l13.65625-13.65625h148.6875zm0 0"/><path d="m56 168v224c0 4.417969 3.582031 8 8 8h352c4.417969 0 8-3.582031 8-8v-224c0-13.253906-10.746094-24-24-24h-40v16h40c4.417969 0 8 3.582031 8 8v216h-336v-216c0-4.417969 3.582031-8 8-8h40v-16h-40c-13.253906 0-24 10.746094-24 24zm0 0"/><path d="m240 48c13.253906 0 24 10.746094 24 24 0 4.417969 3.582031 8 8 8h32c4.417969 0 8-3.582031 8-8 0-39.765625-32.234375-72-72-72s-72 32.234375-72 72v24h-8c-13.253906 0-24 10.746094-24 24v112c0 13.253906 10.746094 24 24 24h80v-16h-80c-4.417969 0-8-3.582031-8-8v-112c0-4.417969 3.582031-8 8-8h160c4.417969 0 8 3.582031 8 8v56h16v-56c0-13.253906-10.746094-24-24-24h-104v-24c0-13.253906 10.746094-24 24-24zm-56 48v-24c-.023438-29.390625 22.675781-53.796875 51.988281-55.902344 29.316407-2.101562 55.269531 18.8125 59.445313 47.902344h-16.234375c-4.089844-20.140625-22.773438-33.902344-43.21875-31.835938-20.445313 2.0625-36 19.285157-35.980469 39.835938v24zm0 0"/><path d="m248 216v-17.136719c15.601562-4.027343 25.777344-19.03125 23.746094-35.015625s-15.632813-27.96875-31.746094-27.96875-29.714844 11.984375-31.746094 27.96875 8.144532 30.988282 23.746094 35.015625v17.136719zm-24-48c0-8.835938 7.164062-16 16-16s16 7.164062 16 16-7.164062 16-16 16-16-7.164062-16-16zm0 0"/><path d="m112 320c.027344 22.082031 17.917969 39.972656 40 40h176c18.246094 0 34.179688-12.34375 38.734375-30.007812l-15.488281-4c-2.730469 10.601562-12.296875 18.011718-23.246094 18.007812h-176c-13.253906 0-24-10.746094-24-24s10.746094-24 24-24h96v-16h-96c-22.082031.027344-39.972656 17.917969-40 40zm0 0"/><path d="m152 312h16v16h-16zm0 0"/><path d="m184 312h16v16h-16zm0 0"/><path d="m216 312h16v16h-16zm0 0"/><path d="m248 312h16v16h-16zm0 0"/><path d="m301.65625 242.34375-11.3125 11.3125 24 24c3.125 3.121094 8.1875 3.121094 11.3125 0l56-56-11.3125-11.3125-50.34375 50.34375zm0 0"/><path d="m256 256c.015625 23.949219 13.402344 45.882812 34.691406 56.851562 21.289063 10.964844 46.921875 9.128907 66.429688-4.761718 19.507812-13.890625 29.628906-37.511719 26.230468-61.21875l-15.839843 2.257812c.324219 2.277344.484375 4.570313.488281 6.871094-.003906 22.101562-15.097656 41.347656-36.5625 46.613281s-43.753906-4.808593-53.984375-24.398437c-10.230469-19.59375-5.761719-43.636719 10.824219-58.246094 16.589844-14.605469 41.007812-15.996094 59.148437-3.367188l9.148438-13.121093c-19.558594-13.625-45.070313-15.246094-66.199219-4.210938-21.128906 11.03125-34.375 32.894531-34.375 56.730469zm0 0"/></svg>